<svg width="81px" height="25px" viewBox="40 22 81 25" version="1.1" xmlns="http://www.w3.org/2000/svg" xmlns:xlink="http://www.w3.org/1999/xlink">
    <!-- Generator: Sketch 3.8.3 (29802) - http://www.bohemiancoding.com/sketch -->
    <desc>Created with Sketch.</desc>
    <defs></defs>
    <g id="logo" stroke="none" stroke-width="1" fill="none" fill-rule="evenodd" transform="translate(40.000000, 22.000000)">
        <path d="M3.95173829,0.280146535 C4.5289975,0.280146535 4.99662636,0.748027723 4.99662636,1.32295842 L4.99662636,4.11990891 C4.99662636,4.69685941 4.5289975,5.16260198 3.95173829,5.16260198 L1.10564404,5.16260198 C0.528384831,5.16260198 0.0606366716,4.69685941 0.0606366716,4.11990891 L0.0606366716,1.32295842 C0.0606366716,0.748027723 0.528384831,0.280146535 1.10564404,0.280146535 L3.95173829,0.280146535 Z" id="Fill-1" fill="#0096D6"></path>
        <path d="M3.98586804,7.98325545 L1.07022592,7.98325545 C0.480321649,7.98325545 4.77172316e-05,8.45957228 4.77172316e-05,9.05125545 L4.77172316e-05,23.8141069 L3.98586804,23.8141069 C4.57577231,23.8141069 5.05604624,23.3379089 5.05604624,22.7462257 L5.05604624,9.05125545 C5.05604624,8.45957228 4.57577231,7.98325545 3.98586804,7.98325545" id="Fill-3" fill="#0096D6"></path>
        <path d="M20.9921819,0.000463366337 L13.6502894,0.168344554 C9.14625994,0.325651485 7.35555155,3.6828 7.35555155,6.94965149 L7.27335862,23.8128594 L11.3793071,23.8128594 C11.9713586,23.8128594 12.4494853,23.3366614 12.4494853,22.746998 L12.4010523,16.076899 C12.4010523,15.4663248 12.8308652,15.008899 13.4417651,15.008899 L17.3160464,15.008899 C17.9079786,15.008899 18.3862246,14.5304436 18.3862246,13.9430376 L18.3862246,11.5258099 C18.3862246,10.938404 17.9079786,10.4599485 17.3160464,10.4599485 L12.4241951,10.4599485 L12.4241951,7.63163168 C12.4241951,5.92157228 13.3237842,5.21868119 15.3441318,5.21868119 L20.9921819,5.20394851 C21.5820862,5.20394851 22.0623601,4.72561188 22.0623601,4.13808713 L22.0623601,1.06632475 C22.0623601,0.4788 21.5820862,0.000463366337 20.9921819,0.000463366337" id="Fill-5" fill="#434343"></path>
        <path d="M28.2771358,0.175021782 L25.3614937,0.175021782 C24.7715894,0.175021782 24.2933434,0.651338614 24.2933434,1.24088317 L24.2933434,23.8090812 L28.2771358,23.8090812 C28.869068,23.8090812 29.347314,23.3307446 29.347314,22.7412 L29.347314,1.24088317 C29.347314,0.651338614 28.869068,0.175021782 28.2771358,0.175021782" id="Fill-7" fill="#434343"></path>
        <path d="M45.2651024,6.94927129 C45.2651024,3.6844396 43.4722467,0.325271287 38.9682172,0.167845545 L32.6755074,8.31683168e-05 C32.0834558,8.31683168e-05 31.6031819,0.478419802 31.6031819,1.06796436 L31.6031819,4.13770693 C31.6031819,4.72725149 32.0834558,5.20570693 32.6755074,5.20570693 L37.2743748,5.21830099 C39.2947224,5.21830099 40.1943115,5.92321188 40.1943115,7.63113267 L40.1121186,23.8124792 L44.251827,23.8124792 C44.8437592,23.8124792 45.3220052,23.3361624 45.3220052,22.7466178 L45.2651024,6.94927129 Z" id="Fill-9" fill="#434343"></path>
        <path d="M52.8782912,0.00444356436 C52.8782912,0.00444356436 46.1916756,0.153433663 45.3173766,0.153433663 C44.5589112,0.214265347 44.45787,0.715770297 44.950789,1.1647604 C46.6719495,2.63553267 46.9142337,5.03588911 46.9142337,5.15339406 L52.8782912,5.20163168 C53.474518,5.20163168 53.9589672,4.72115644 53.9589672,4.12745347 L53.9589672,1.07874059 C53.9589672,0.484918812 53.474518,0.00444356436 52.8782912,0.00444356436" id="Fill-11" fill="#434343"></path>
        <g id="Group-15" transform="translate(51.415317, 21.398851)" fill="#434343">
            <path d="M1.38228468,0.711576238 L0.99887673,0.711576238 L0.99887673,1.2172396 L1.38228468,1.2172396 C1.50658807,1.2172396 1.64353652,1.11648713 1.64353652,0.969635644 C1.64353652,0.812328713 1.50658807,0.711576238 1.38228468,0.711576238 L1.38228468,0.711576238 Z M1.61824639,1.96634851 L1.24748351,1.39973465 L0.99887673,1.39973465 L0.99887673,1.96634851 L0.796674963,1.96634851 L0.796674963,0.535378218 L1.38228468,0.535378218 C1.62456892,0.535378218 1.84991355,0.705279208 1.84991355,0.969635644 C1.84991355,1.28852673 1.56551885,1.39343762 1.48344521,1.39343762 L1.86685317,1.96634851 L1.61824639,1.96634851 Z M1.2769489,0.187021782 C0.685016642,0.187021782 0.213093225,0.659180198 0.213093225,1.24658614 C0.213093225,1.82995248 0.685016642,2.3061505 1.2769489,2.3061505 C1.86053063,2.3061505 2.34080457,1.82995248 2.34080457,1.24658614 C2.34080457,0.659180198 1.86053063,0.187021782 1.2769489,0.187021782 L1.2769489,0.187021782 Z M1.2769489,2.49506139 C0.586003387,2.49506139 0.0234172312,1.93486337 0.0234172312,1.24658614 C0.0234172312,0.552130693 0.586003387,0.00024950495 1.2769489,0.00024950495 C1.97421694,0.00024950495 2.53048056,0.552130693 2.53048056,1.24658614 C2.53048056,1.93486337 1.97421694,2.49506139 1.2769489,2.49506139 L1.2769489,2.49506139 Z" id="Fill-13"></path>
        </g>
        <path d="M80.43368,10.9298376 C80.43368,10.9298376 76.9281336,7.51922376 76.8461792,7.43748119 C76.3338155,7.00405545 75.9418184,7.18571881 75.8905224,7.70243168 C75.8847963,7.75910495 75.8855121,7.97997624 75.8843191,8.02773861 C75.8819333,8.13051089 75.8762072,8.23280792 75.868811,8.3346297 C75.7989053,9.27989703 75.5205946,10.2192238 75.0721719,11.0550653 C74.3805106,12.3439366 73.1216108,13.3309069 72.0854311,14.3386693 C68.6824767,17.6481743 62.4143412,23.7225505 62.4143412,23.7225505 L69.0961851,23.7225505 C69.4756564,23.7225505 69.8396196,23.5733228 70.1092219,23.3074218 L80.43368,13.0989861 C81.0350364,12.4999366 81.0350364,11.5287683 80.43368,10.9298376" id="Fill-16" fill="#0096D6"></path>
        <path d="M72.780361,3.45765149 C72.6708499,3.32529505 70.3056261,0.902364356 70.3056261,0.902364356 C70.2163948,0.814443564 70.12609,0.735077228 70.03328,0.66509703 C69.7146482,0.424740594 69.3669088,0.293572277 68.9360222,0.293572277 L64.9985156,0.293572277 L62.4308514,0.293572277 L73.0442373,10.6195129 C73.1160517,10.6892554 73.2358219,10.6759485 73.2883109,10.5906416 C74.5568735,8.52925545 74.8112063,5.91361188 72.780361,3.45765149" id="Fill-18" fill="#0096D6"></path>
    </g>
</svg>
